<?xml version="1.0" standalone="no"?>
<!DOCTYPE svg PUBLIC "-//W3C//DTD SVG 20010904//EN"
 "http://www.w3.org/TR/2001/REC-SVG-20010904/DTD/svg10.dtd">
<svg version="1.0" xmlns="http://www.w3.org/2000/svg"
 width="283.000000pt" height="283.000000pt" viewBox="0 0 283.000000 283.000000"
 preserveAspectRatio="xMidYMid meet">
<metadata>
Created by potrace 1.14, written by Peter Selinger 2001-2017
</metadata>
<g transform="translate(0.000000,283.000000) scale(0.100000,-0.100000)"
fill="#000000" stroke="none">
<path d="M1830 2145 c0 -42 3 -55 15 -55 12 0 15 13 15 55 0 42 -3 55 -15 55
-12 0 -15 -13 -15 -55z"/>
<path d="M1873 2093 c-7 -3 -13 -16 -13 -29 0 -15 -6 -24 -15 -24 -8 0 -15 -7
-15 -15 0 -8 -7 -15 -15 -15 -8 0 -14 -3 -14 -7 3 -20 -2 -26 -11 -13 -6 9
-10 11 -10 3 0 -7 -7 -10 -15 -7 -8 4 -15 10 -15 15 0 5 7 9 15 9 8 0 15 7 15
15 0 8 6 15 14 15 8 0 14 10 14 25 0 23 -4 25 -44 25 -29 0 -43 -4 -41 -12 1
-7 -9 -12 -22 -13 -27 0 -43 -25 -16 -25 9 0 14 -4 10 -9 -3 -6 3 -15 14 -21
24 -13 24 -46 -1 -47 -12 -1 -16 3 -11 10 4 7 -2 5 -12 -3 -17 -14 -18 -13
-13 13 5 24 2 27 -23 27 -15 0 -29 -5 -31 -10 -5 -17 -46 -20 -52 -4 -9 23
-26 16 -26 -10 0 -21 -4 -24 -31 -22 -36 3 -37 1 -41 -47 -1 -21 -7 -37 -14
-37 -19 0 -17 -177 2 -184 11 -4 14 -27 14 -95 0 -63 4 -91 13 -94 8 -2 12
-29 13 -83 2 -115 2 -114 29 -124 14 -5 25 -14 25 -20 0 -5 18 -10 40 -10 27
0 40 -4 40 -13 0 -11 19 -14 80 -14 75 0 101 -5 87 -19 -3 -3 -27 -7 -54 -8
-38 -2 -47 -6 -45 -18 2 -12 -5 -16 -27 -14 -22 2 -32 -4 -40 -22 -6 -13 -15
-21 -20 -17 -5 3 -12 1 -16 -5 -3 -5 -1 -10 5 -10 6 0 8 -5 4 -11 -5 -8 1 -10
19 -7 14 3 31 1 39 -3 7 -4 18 -3 25 3 10 8 13 7 13 -5 0 -21 -27 -42 -33 -25
-4 9 -6 10 -6 1 -1 -7 -8 -10 -18 -6 -12 5 -15 2 -10 -10 5 -12 1 -17 -13 -17
-11 0 -19 -3 -19 -7 3 -21 -2 -33 -12 -28 -6 4 -13 -2 -16 -14 -6 -24 -40 -29
-40 -6 0 8 8 15 18 15 14 0 17 9 16 50 -1 44 -6 54 -28 52 -10 -2 -9 81 0 96
5 8 12 13 17 12 19 -3 14 19 -5 25 -12 3 -21 12 -21 20 0 16 -38 27 -46 13
-11 -17 -34 43 -34 88 0 32 -4 44 -15 44 -8 0 -15 6 -15 14 0 8 -6 16 -12 18
-7 3 -13 13 -13 24 0 17 -9 19 -106 22 l-105 3 -1 54 c0 34 4 53 11 52 6 -1
12 14 14 33 2 19 9 40 16 45 17 15 18 125 0 132 -8 3 -14 16 -14 28 0 13 -5
25 -12 27 -6 2 -13 15 -15 28 -5 35 -27 44 -118 50 -95 6 -125 3 -125 -13 0
-9 -32 -13 -117 -12 l-118 0 -2 -35 c-2 -51 -2 -52 -13 -45 -10 6 -14 -7 -11
-33 1 -7 -5 -15 -14 -18 -10 -4 -15 -19 -15 -46 0 -21 -4 -37 -9 -33 -5 3 -12
-3 -16 -14 -4 -13 -12 -17 -25 -14 -12 3 -22 -1 -26 -11 -4 -11 -19 -16 -46
-16 -50 0 -48 25 2 26 19 1 36 6 38 13 2 6 10 11 18 11 8 0 14 7 14 16 0 12
-7 15 -23 12 -18 -4 -29 3 -45 27 -31 44 -70 40 -122 -14 -44 -45 -50 -48 -50
-26 0 8 7 15 15 15 8 0 14 6 12 13 -1 6 4 11 10 10 7 -2 13 4 13 12 0 24 -25
17 -40 -10 -7 -14 -19 -25 -26 -25 -7 0 -14 -12 -16 -27 -2 -23 -7 -27 -25
-25 -16 2 -23 -2 -23 -12 0 -10 -9 -16 -25 -16 -14 0 -28 -7 -31 -15 -4 -8
-15 -15 -25 -15 -30 0 -77 -54 -81 -92 -2 -26 -8 -34 -26 -36 -13 -2 -26 -10
-29 -18 -3 -8 -9 -11 -14 -8 -20 12 -7 -20 16 -42 14 -13 25 -32 25 -42 0 -11
7 -22 15 -26 10 -3 15 1 15 13 0 22 44 22 48 -1 2 -10 12 -13 32 -10 17 2 27
8 24 13 -3 5 2 9 10 9 10 0 16 -9 16 -25 0 -21 5 -25 30 -25 19 0 29 5 27 13
-1 7 10 13 26 15 21 3 27 9 27 28 0 15 6 24 16 24 8 0 13 4 10 8 -6 9 29 42
44 42 6 0 10 7 10 15 0 8 7 15 16 15 8 0 13 4 10 8 -6 9 35 48 47 44 4 -1 7 5
7 13 0 21 12 19 33 -5 22 -26 25 -140 3 -140 -8 0 -14 -6 -13 -12 1 -33 -4
-49 -13 -43 -10 6 -14 -6 -11 -37 2 -16 -11 -18 -146 -19 -81 -1 -156 0 -167
1 -10 1 -30 -1 -44 -5 -20 -5 -23 -8 -11 -16 7 -5 9 -9 4 -9 -6 0 -11 -24 -12
-55 l0 -55 74 0 c41 0 72 4 69 9 -14 23 32 29 245 30 195 2 226 0 226 -13 0
-8 -4 -13 -9 -10 -5 4 -12 -3 -15 -15 -5 -19 -25 -26 -61 -22 -7 1 -12 -2 -11
-6 3 -20 -2 -33 -12 -30 -16 3 -59 46 -59 58 0 6 -9 7 -21 4 -15 -5 -19 -4
-14 5 6 9 3 9 -13 1 -10 -6 -29 -8 -42 -6 -19 4 -20 2 -8 -12 9 -12 9 -15 1
-9 -7 4 -13 3 -13 -3 0 -5 -8 -8 -17 -7 -10 2 -21 -2 -25 -8 -5 -8 -8 -7 -8 2
0 10 -5 10 -20 2 -11 -6 -20 -7 -20 -2 0 5 -19 9 -42 8 -43 -1 -70 -14 -61
-28 2 -5 -2 -8 -9 -8 -7 0 -19 -9 -26 -20 -7 -12 -18 -20 -25 -19 -30 4 -46
-2 -41 -15 3 -8 -3 -16 -16 -19 -12 -3 -19 -10 -15 -16 3 -6 3 -11 -2 -11 -7
0 -8 -52 -4 -147 l1 -22 23 22 c13 12 22 25 20 29 -6 12 16 18 23 6 4 -7 9
-59 10 -117 2 -124 2 -121 12 -120 21 4 31 -3 25 -16 -3 -9 -2 -15 3 -14 23 4
33 -2 27 -18 -5 -13 -2 -15 11 -10 12 5 19 2 23 -11 4 -17 35 -21 123 -13 12
1 15 15 15 64 0 50 -3 64 -15 63 -8 -1 -16 8 -18 18 -3 16 0 18 27 13 25 -5
31 -3 32 11 6 108 3 135 -17 133 -5 -1 -9 5 -9 11 0 7 13 14 29 15 21 1 29 -3
33 -18 5 -17 12 -20 52 -17 43 3 46 5 49 35 3 35 32 55 32 23 0 -11 7 -20 15
-20 9 0 15 -9 15 -21 0 -19 2 -20 17 -8 14 12 16 12 8 0 -5 -10 -4 -12 3 -7 7
4 12 13 12 20 0 8 9 16 20 19 11 3 19 11 18 19 -2 7 4 12 14 10 12 -2 16 2 12
11 -3 8 3 20 12 28 12 9 15 10 10 2 -9 -16 8 -17 35 -2 11 5 17 14 14 20 -4 5
1 9 9 9 9 0 16 -9 16 -21 0 -11 -4 -18 -9 -14 -6 3 -15 -4 -21 -15 -6 -11 -15
-18 -21 -15 -5 4 -9 -3 -9 -14 0 -14 -6 -21 -20 -21 -16 0 -19 -6 -16 -30 2
-20 -1 -30 -10 -30 -15 0 -16 -2 -18 -40 0 -14 -5 -28 -11 -32 -6 -5 -5 -8 3
-8 7 0 11 -4 7 -9 -3 -6 3 -15 14 -21 12 -6 18 -18 16 -30 -2 -11 1 -20 6 -20
6 0 8 -4 5 -8 -3 -5 23 -8 57 -8 51 1 62 4 65 18 2 10 12 18 22 18 15 0 17 8
16 53 -1 28 -5 58 -10 66 -7 10 -6 12 4 6 9 -5 11 -4 6 3 -4 7 -23 12 -42 12
-24 0 -34 4 -31 13 2 6 10 11 17 9 6 -1 14 7 17 18 4 14 14 20 34 20 19 0 32
6 37 18 5 12 20 18 50 19 23 1 42 -2 42 -7 0 -6 0 -12 0 -15 0 -3 -3 -5 -7 -6
-5 0 -12 -9 -18 -19 -5 -10 -14 -18 -20 -18 -5 1 -11 -6 -13 -15 -2 -12 4 -17
20 -18 24 -1 228 -1 240 0 16 2 4 62 -14 72 -10 5 -16 14 -13 20 4 5 -3 9 -15
9 -14 0 -20 5 -18 18 2 11 -3 16 -14 14 -11 -2 -18 3 -18 13 0 10 -9 19 -20
22 -11 3 -17 10 -14 15 3 5 -3 12 -15 15 -12 3 -21 12 -21 19 0 14 -11 18 -42
15 -10 -1 -18 3 -18 8 0 6 0 14 0 19 0 4 9 8 20 8 11 1 25 2 30 3 6 0 10 15
10 31 0 23 -5 30 -20 31 -36 2 -40 4 -39 13 1 16 -23 24 -62 22 -30 -3 -40 1
-44 15 -4 12 -18 19 -43 22 -20 2 40 4 133 4 94 0 162 -1 152 -4 -24 -6 -20
-64 5 -71 26 -6 25 -62 0 -62 -15 0 -19 -8 -19 -35 0 -26 5 -35 18 -35 9 0 19
-9 22 -20 3 -11 11 -19 19 -18 7 2 12 -3 10 -10 -1 -7 6 -15 15 -19 23 -9 35
-26 22 -34 -14 -9 1 -41 17 -35 14 5 18 -10 14 -48 -1 -11 3 -15 9 -12 6 4 11
4 11 -1 0 -4 27 -8 60 -8 33 0 60 2 60 5 0 3 14 5 30 5 17 0 30 -4 30 -8 0 -5
5 -5 11 -1 6 3 45 7 88 8 61 1 75 5 73 16 -2 8 -8 20 -14 25 -8 7 -8 6 -3 -4
5 -9 4 -12 -3 -7 -7 4 -12 13 -12 20 0 8 -10 17 -22 21 -14 4 -18 8 -10 12 6
2 10 9 6 14 -3 5 2 9 11 9 10 0 13 -5 9 -13 -6 -9 -4 -9 7 -2 8 6 21 10 29 9
8 -1 21 -2 27 -3 7 0 12 -7 10 -13 -1 -8 9 -13 23 -14 22 0 80 -42 80 -58 0
-3 -9 -6 -19 -6 -15 0 -19 -6 -17 -31 2 -23 -3 -33 -23 -44 -14 -8 -20 -14
-13 -15 7 0 10 -5 6 -12 -4 -6 -3 -8 3 -5 14 9 31 -13 28 -35 -2 -10 2 -21 8
-25 15 -9 137 -10 137 -1 0 4 7 5 15 2 11 -4 13 -2 10 9 -4 9 1 16 14 20 17 4
20 13 19 67 -1 52 -4 64 -20 68 -10 2 -18 10 -18 17 0 7 -7 15 -15 19 -8 3
-15 13 -15 21 0 9 -4 14 -9 10 -9 -5 -61 42 -61 56 0 3 16 6 35 7 29 1 35 -2
35 -19 0 -11 4 -18 8 -15 5 3 16 -4 26 -15 11 -13 23 -18 36 -14 18 6 25 -3
21 -27 0 -5 8 -8 19 -8 21 0 23 9 20 68 -1 26 2 32 18 32 16 0 19 -6 17 -29
-2 -22 3 -31 17 -34 10 -3 17 -11 16 -19 -2 -10 13 -13 60 -14 34 -1 65 -4 68
-7 3 -3 6 -30 7 -59 0 -49 16 -85 31 -71 3 4 6 -8 6 -26 0 -21 -6 -34 -17 -39
-10 -4 -19 -19 -20 -35 -2 -24 6 -32 30 -28 4 0 7 -6 7 -14 0 -12 14 -15 70
-15 56 0 70 3 70 15 0 8 7 15 15 15 8 0 15 7 15 15 0 8 7 15 15 15 15 0 18 9
16 47 -2 13 4 23 16 25 16 3 18 15 18 101 0 86 -2 97 -17 97 -22 0 -23 13 -3
30 12 10 15 9 15 -5 0 -9 8 -19 19 -22 13 -3 18 -12 16 -34 -2 -26 5 -34 28
-30 4 0 7 -8 7 -19 0 -17 7 -20 41 -20 l41 0 -7 47 c-6 49 -10 58 -26 58 -5 0
-9 3 -9 8 0 4 0 11 0 17 0 5 3 9 8 9 23 -4 28 6 27 56 0 42 -3 54 -13 50 -8
-3 -18 -5 -24 -5 -6 0 -8 -6 -5 -14 3 -8 -1 -17 -10 -20 -9 -4 -17 1 -20 14
-4 15 -14 20 -40 20 -27 0 -34 3 -29 15 4 10 -1 15 -14 15 -11 0 -20 7 -20 15
0 14 -12 19 -32 16 -5 0 -7 2 -7 7 5 27 -4 32 -56 32 -37 0 -55 -4 -55 -12 0
-9 -3 -10 -8 -2 -11 17 -44 12 -50 -8 -6 -25 -32 -23 -32 3 0 14 -5 19 -14 16
-9 -4 -16 2 -19 15 -4 13 -11 19 -21 15 -8 -3 -18 -2 -21 3 -4 6 -13 7 -23 1
-9 -5 -21 -9 -27 -10 -5 -1 -10 -7 -10 -13 -1 -7 -6 -12 -12 -11 -7 2 -15 -6
-18 -17 -8 -25 -23 -25 -44 -2 -17 18 -47 22 -68 9 -7 -5 -13 -5 -13 0 0 4
-25 8 -55 8 -30 0 -55 -3 -55 -7 0 -3 -9 -4 -20 -1 -22 6 -26 18 -9 28 6 4 44
7 85 7 70 0 79 4 75 31 -1 6 137 9 399 9 52 0 56 -1 40 -12 -13 -8 -12 -10 1
-15 26 -10 73 -12 90 -4 8 4 21 4 29 -1 7 -4 24 -4 36 0 19 7 27 4 42 -15 27
-34 43 -18 44 47 1 30 -1 59 -5 64 -3 5 -33 9 -68 8 -50 -1 -63 2 -66 16 -4
15 -18 17 -99 16 -71 -2 -94 1 -94 11 0 7 6 13 13 13 9 0 13 11 12 33 -2 24 5
39 26 59 27 25 29 33 29 98 0 50 -4 72 -13 76 -9 3 -14 23 -16 51 -1 26 -6 50
-13 54 -6 4 -12 16 -13 27 -1 21 -27 52 -44 52 -6 0 -11 14 -11 30 0 20 -5 30
-15 30 -8 0 -15 6 -15 14 0 9 -7 12 -20 9 -12 -3 -22 1 -26 11 -3 9 -12 16
-20 16 -8 0 -13 6 -11 13 1 6 -7 12 -18 13 -57 3 -65 5 -65 17 0 9 -28 12
-110 11 -77 -1 -109 2 -107 10 3 6 10 10 16 9 19 -5 13 71 -7 88 -27 23 -36
27 -49 22z m237 -388 c0 -8 8 -11 20 -8 12 3 22 -1 26 -11 3 -9 15 -16 25 -16
31 0 59 -36 59 -76 0 -28 -3 -35 -15 -30 -9 3 -23 -3 -31 -13 -12 -13 -26 -17
-50 -14 -27 4 -34 1 -34 -12 0 -12 -7 -15 -27 -13 -25 3 -28 7 -28 41 0 23 -4
37 -12 37 -17 0 -18 127 -1 132 22 8 68 -4 68 -17z m-1670 -14 c0 -5 -7 -11
-15 -15 -9 -3 -15 0 -15 9 0 8 7 15 15 15 8 0 15 -4 15 -9z m160 -80 c0 -5 -7
-11 -15 -15 -9 -3 -15 0 -15 9 0 8 7 15 15 15 8 0 15 -4 15 -9z m330 -458 c0
-8 -12 -13 -35 -13 -24 0 -35 5 -35 15 0 10 10 14 35 13 22 -1 35 -6 35 -15z
m867 -20 c2 -6 -3 -13 -12 -16 -10 -5 -15 0 -15 14 0 21 21 22 27 2z m-774 -8
c4 -8 3 -16 -1 -19 -13 -8 -35 11 -28 23 10 15 23 14 29 -4z m444 -230 c0 -8
-8 -15 -17 -15 -9 0 -17 7 -17 15 0 8 8 15 17 15 9 0 17 -7 17 -15z"/>
<path d="M2670 1099 c0 -11 4 -18 10 -14 5 3 7 12 3 20 -7 21 -13 19 -13 -6z"/>
<path d="M1165 739 c0 -37 3 -65 8 -62 4 2 7 -1 7 -7 0 -6 5 -8 10 -5 6 3 10
-1 10 -9 0 -16 10 -20 43 -16 11 1 21 -7 24 -19 3 -12 12 -21 19 -21 8 0 14
-4 14 -10 0 -6 30 -10 69 -10 53 0 70 4 75 16 3 8 10 13 15 10 5 -3 11 3 14
14 3 13 14 20 31 20 14 0 29 8 35 18 5 10 21 17 38 17 26 0 28 3 28 44 0 31
-4 47 -17 55 -10 6 -18 16 -18 23 0 9 -15 13 -42 13 -44 0 -70 -10 -69 -26 1
-5 -5 -9 -11 -9 -7 0 -12 -7 -10 -16 1 -12 -9 -16 -47 -18 -41 -2 -50 1 -56
18 -4 15 -12 18 -35 15 -22 -4 -29 -1 -32 13 -3 14 -14 18 -53 19 l-50 1 0
-68z"/>
</g>
</svg>
